<?xml version="1.0" encoding="UTF-8"?>
<svg width="20px" height="20px" viewBox="0 0 20 20" version="1.1" xmlns="http://www.w3.org/2000/svg" xmlns:xlink="http://www.w3.org/1999/xlink">
    <title>icon-wj@2x</title>
    <g id="icon-wj" stroke="none" stroke-width="1" fill="none" fill-rule="evenodd">
        <g id="文件夹-(1)" transform="translate(1.776527, 2.444322)" fill="#000000" fill-rule="nonzero">
            <path d="M7.81722104,2.67354772 C7.96252255,3.16757284 8.42748737,3.48723615 8.92151249,3.48723615 L13.6292813,3.48723615 C13.6292813,2.84790952 13.1061959,2.3248241 12.4668692,2.3248241 L7.70097983,2.3248241 L7.81722104,2.67354772 Z M7.35225622,1.16241205 L12.4668692,1.16241205 C13.7455225,1.16241205 14.7916933,2.2085829 14.7916933,3.48723615 L14.7916933,3.95220097 C15.3438391,4.38810549 15.721623,5.05649242 15.721623,5.81206025 L15.721623,12.7865326 C15.721623,14.0651858 14.6754521,15.1113567 13.3967989,15.1113567 L2.3248241,15.1113567 C1.04617085,15.1113567 0,14.0651858 0,12.7865326 L0,2.3248241 C0,1.04617085 1.04617085,7.10542736e-14 2.3248241,7.10542736e-14 L5.31803513,7.10542736e-14 C6.16078387,7.10542736e-14 6.945412,0.46496482 7.35225622,1.16241205 Z M5.31803513,1.16241205 L2.3248241,1.16241205 C1.68549747,1.16241205 1.16241205,1.68549747 1.16241205,2.3248241 L1.16241205,12.7865326 C1.16241205,13.4258592 1.68549747,13.9489446 2.3248241,13.9489446 L13.3677386,13.9489446 C14.0070652,13.9489446 14.5301506,13.4258592 14.5301506,12.7865326 L14.5301506,5.81206025 C14.5301506,5.17273362 14.0070652,4.6496482 13.3677386,4.6496482 L8.97963309,4.6496482 C7.96252255,4.6496482 7.06165321,3.98126127 6.77105019,3.02227133 L6.42232658,1.97610049 C6.27702507,1.48207536 5.84112055,1.16241205 5.31803513,1.16241205 Z M3.48723615,11.0429145 L8.13688435,11.0429145 C8.45654767,11.0429145 8.71809038,11.3044572 8.71809038,11.6241205 C8.71809038,11.9437838 8.45654767,12.2053265 8.13688435,12.2053265 L3.48723615,12.2053265 C3.16757284,12.2053265 2.90603013,11.9437838 2.90603013,11.6241205 C2.90603013,11.3044572 3.16757284,11.0429145 3.48723615,11.0429145 Z" id="形状"></path>
        </g>
    </g>
</svg>