<?xml version="1.0" encoding="UTF-8"?>
<svg width="20px" height="20px" viewBox="0 0 20 20" version="1.1" xmlns="http://www.w3.org/2000/svg" xmlns:xlink="http://www.w3.org/1999/xlink">
    <title>icon-yy@2x</title>
    <g id="icon-yy" stroke="none" stroke-width="1" fill="none" fill-rule="evenodd">
        <g id="语音" transform="translate(1.500000, 0.000000)" fill="#000000" fill-rule="nonzero">
            <path d="M9.25,17.9675 L9.25,19.25 C9.25,19.6642136 8.91421356,20 8.5,20 C8.08578644,20 7.75,19.6642136 7.75,19.25 L7.75,17.9675 C3.40675001,17.5875 0,13.9415 0,9.50000001 L0,8.99999999 C0,8.58578643 0.335786437,8.24999999 0.749999999,8.24999999 C1.16421356,8.24999999 1.5,8.58578643 1.5,8.99999999 L1.5,9.50000001 C1.5,13.366 4.63399999,16.5 8.5,16.5 C12.366,16.5 15.5,13.366 15.5,9.50000001 L15.5,8.99999999 C15.5,8.58578643 15.8357864,8.24999999 16.25,8.24999999 C16.6642136,8.24999999 17,8.58578643 17,8.99999999 L17,9.50000001 C17,13.94175 13.59325,17.5875 9.25,17.9675 L9.25,17.9675 Z M3.50000001,4.9975 C3.50000001,2.23750001 5.73825,0 8.50000001,0 C11.2605,0 13.5,2.23924999 13.5,4.9975 L13.5,9.50249999 C13.5,12.2625 11.26175,14.5 8.50000001,14.5 C5.73950001,14.5 3.50000001,12.26075 3.50000001,9.50249999 L3.50000001,4.9975 Z M5.00000001,4.9975 L5.00000001,9.50249999 C5.00000001,11.4325 6.56774999,13 8.50000001,13 C10.4335,13 12,11.43425 12,9.50249999 L12,4.9975 C12,3.0675 10.43225,1.5 8.50000001,1.5 C6.5665,1.5 5.00000001,3.06574999 5.00000001,4.9975 Z" id="形状"></path>
        </g>
    </g>
</svg>