<?xml version="1.0" encoding="UTF-8"?>
<svg width="20px" height="20px" viewBox="0 0 20 20" version="1.1" xmlns="http://www.w3.org/2000/svg" xmlns:xlink="http://www.w3.org/1999/xlink">
    <title>icon-pic@2x</title>
    <g id="icon-pic" stroke="none" stroke-width="1" fill="none" fill-rule="evenodd">
        <g id="图片" transform="translate(1.776527, 2.440432)" fill="#000000" fill-rule="nonzero">
            <path d="M16.4469462,8.40839915 L16.4469462,12.7432712 C16.4469462,14.0553962 15.4344311,15.1191354 14.1854911,15.1191354 L2.26145511,15.1191354 C1.01251514,15.1191354 0,14.0553962 0,12.7432712 L0,2.37586413 C0,1.06373916 1.01251512,9.9475983e-14 2.26145511,9.9475983e-14 L14.1854911,9.9475983e-14 C15.434431,9.9475983e-14 16.4469462,1.06373916 16.4469462,2.37586413 L16.4469462,8.40839915 L16.4469462,8.40839915 Z M15.2134252,6.89734956 L15.2134252,2.37586413 C15.2134252,2.08944669 15.1051253,1.81476018 14.9123503,1.61223247 C14.7195752,1.40970476 14.4581162,1.29592589 14.1854911,1.29592589 L2.26145511,1.29592589 C1.98883003,1.29592589 1.72737095,1.40970476 1.53459591,1.61223247 C1.34182086,1.81476018 1.23352096,2.08944669 1.23352096,2.37586413 L1.23352096,9.35118523 C1.50577032,9.30871056 1.78063339,9.28741387 2.05586828,9.28746887 C3.34543069,9.28548946 4.59509345,9.75711627 5.58867232,10.6207606 C6.58576842,7.89132472 9.08899364,6.04765414 11.924036,6.04765414 C13.1904508,6.04765414 14.3717527,6.38740272 15.2134252,6.89734956 Z M15.2134252,8.56261433 C15.1106318,8.39414396 14.8061577,8.12415941 14.3721639,7.89607645 C13.7120246,7.54920028 12.8693242,7.34358003 11.924036,7.34358003 C9.57705676,7.34358003 7.50782534,8.88789173 6.71179315,11.1644015 C6.65916292,11.3151609 6.56911589,11.575858 6.44206323,11.9456289 C6.29404071,12.3769562 5.77801778,12.5147563 5.45195708,12.2099977 C5.13514779,11.9136627 4.90160114,11.7024268 4.75542891,11.5793138 C3.99032695,10.9330266 3.0376047,10.5815493 2.05586828,10.5833948 C1.77709254,10.5833948 1.50222296,10.6110412 1.23352096,10.6654701 L1.23352096,12.7432712 C1.23352096,13.0296887 1.34182086,13.3043752 1.53459591,13.5069029 C1.72737095,13.7094306 1.98883003,13.8232095 2.26145511,13.8232095 L14.1854911,13.8232095 C14.4581162,13.8232095 14.7195752,13.7094306 14.9123503,13.5069029 C15.1051253,13.3043752 15.2134252,13.0296887 15.2134252,12.7432712 L15.2134252,8.56239833 L15.2134252,8.56261433 Z M4.5229102,6.91160474 C3.50102798,6.91160474 2.67262876,6.04129607 2.67262876,4.96771591 C2.67262876,3.89413575 3.50102798,3.02382707 4.5229102,3.02382707 C5.54479243,3.02382707 6.37319165,3.89413575 6.37319165,4.96771591 C6.37319165,6.04129607 5.54479243,6.91160474 4.5229102,6.91160474 Z M4.5229102,5.61567885 C4.86353761,5.61567885 5.13967069,5.32557596 5.13967069,4.96771591 C5.13967069,4.60985585 4.86353761,4.31975296 4.5229102,4.31975296 C4.1822828,4.31975296 3.90614972,4.60985585 3.90614972,4.96771591 C3.90614972,5.32557596 4.1822828,5.61567885 4.5229102,5.61567885 Z" id="形状"></path>
        </g>
    </g>
</svg>